# xmcd CD database file
#
# Track frame offsets:
#	150
#	20737
#	44620
#	71537
#	92300
#	114340
#	137750
#	148832
#	165000
#	185417
#	214587
#	229525
#
# Disc length: 3315 seconds
#
# Revision: 0
# Processed by: cddbd v1.5.1PL0 Copyright (c) Steve Scherf et al.
# Submitted via: CDex 1.51
#
DISCID=9b0cf10c
DTITLE=George Freeman - All In The Game
DYEAR=1991
DGENRE=Blues
TTITLE0=All In The Game
TTITLE1=Till There Was You
TTITLE2=You've Changed
TTITLE3=I Ain't Got Nobody
TTITLE4=Groovy Lady
TTITLE5=Funny How The Slips Away
TTITLE6=New Improved Funk
TTITLE7=Daffy
TTITLE8=Happy Fingers
TTITLE9=Big Finish
TTITLE10=Guitar Lover Man
TTITLE11=Confirmed Truth
EXTD=YEAR: 1991
EXTT0=
EXTT1=
EXTT2=
EXTT3=
EXTT4=
EXTT5=
EXTT6=
EXTT7=
EXTT8=
EXTT9=
EXTT10=
EXTT11=
PLAYORDER=
